<svg width="113" height="113" viewBox="0 0 113 113" fill="none" xmlns="http://www.w3.org/2000/svg">
<g clip-path="url(#clip0_735_830)">
<path d="M108.038 64.8149H3.91748V24.6434H108.038V64.8149Z" fill="#343434"/>
<mask id="mask0_735_830" style="mask-type:luminance" maskUnits="userSpaceOnUse" x="0" y="0" width="113" height="113">
<path d="M22.5812 -3.8147e-06C10.0758 -3.8147e-06 0 10.0758 0 22.5812V90.4188C0 102.924 10.0758 113 22.5812 113H90.4094C102.924 113 113 102.924 113 90.4188V22.5812C113 10.0758 102.924 -3.8147e-06 90.4094 -3.8147e-06H22.5812ZM5.66883 45.2094V33.9188C5.66883 29.6437 8.76692 28.5042 10.3772 28.25C10.8857 28.1747 11.2906 28.25 11.2906 28.25H45.2094C48.0438 28.25 50.8312 31.0844 50.8312 31.0844C50.8312 31.0844 53.6656 33.9188 56.5 33.9188C59.3344 33.9188 62.1688 31.0844 62.1688 31.0844C62.1688 31.0844 64.9562 28.25 67.7906 28.25H101.709C107.331 28.25 107.331 33.9188 107.331 33.9188V45.2094C107.331 62.1688 96.0406 62.1688 96.0406 62.1688H67.7906C64.9562 62.1688 62.1688 53.6656 62.1688 53.6656C62.1688 53.6656 59.3344 45.2094 56.5 45.2094C53.6656 45.2094 50.8312 53.6656 50.8312 53.6656C50.8312 53.6656 48.0438 62.1688 45.2094 62.1688H16.9594C16.9594 62.1688 5.66883 62.1688 5.66883 45.2094Z" fill="white"/>
</mask>
<g mask="url(#mask0_735_830)">
<path d="M22.5812 -3.8147e-06C10.0758 -3.8147e-06 0 10.0758 0 22.5812V90.4188C0 102.924 10.0758 113 22.5812 113H90.4094C102.924 113 113 102.924 113 90.4188V22.5812C113 10.0758 102.924 -3.8147e-06 90.4094 -3.8147e-06H22.5812ZM5.66883 45.2094V33.9188C5.66883 29.6437 8.76692 28.5042 10.3772 28.25C10.8857 28.1747 11.2906 28.25 11.2906 28.25H45.2094C48.0438 28.25 50.8312 31.0844 50.8312 31.0844C50.8312 31.0844 53.6656 33.9188 56.5 33.9188C59.3344 33.9188 62.1688 31.0844 62.1688 31.0844C62.1688 31.0844 64.9562 28.25 67.7906 28.25H101.709C107.331 28.25 107.331 33.9188 107.331 33.9188V45.2094C107.331 62.1688 96.0406 62.1688 96.0406 62.1688H67.7906C64.9562 62.1688 62.1688 53.6656 62.1688 53.6656C62.1688 53.6656 59.3344 45.2094 56.5 45.2094C53.6656 45.2094 50.8312 53.6656 50.8312 53.6656C50.8312 53.6656 48.0438 62.1688 45.2094 62.1688H16.9594C16.9594 62.1688 5.66883 62.1688 5.66883 45.2094Z" fill="url(#paint0_linear_735_830)"/>
</g>
</g>
<defs>
<linearGradient id="paint0_linear_735_830" x1="11.4915" y1="1401.01" x2="1356" y2="50.7543" gradientUnits="userSpaceOnUse">
<stop stop-color="#85878D"/>
<stop offset="0.00137794" stop-color="#5D5F63"/>
<stop offset="0.525579" stop-color="#CCCCCC"/>
<stop offset="1" stop-color="#5D5C62"/>
</linearGradient>
<clipPath id="clip0_735_830">
<rect width="113" height="113" fill="white"/>
</clipPath>
</defs>
</svg>

